<svg width="24" height="24" viewBox="0 0 24 24" fill="none" xmlns="http://www.w3.org/2000/svg">
<path d="M21.08 8.58V15.42C21.08 16.54 20.48 17.58 19.51 18.15L13.57 21.58C12.6 22.14 11.4 22.14 10.42 21.58L4.48001 18.15C4.00178 17.8727 3.60494 17.4745 3.32936 16.9953C3.05377 16.5161 2.90915 15.9728 2.91001 15.42V8.58C2.91001 7.46 3.51001 6.42 4.48001 5.85L10.42 2.42C11.39 1.86 12.59 1.86 13.57 2.42L19.51 5.85C20.48 6.42 21.08 7.45 21.08 8.58Z" stroke="black" stroke-width="1.5" stroke-linecap="round" stroke-linejoin="round"/>
<path d="M16 16.66C16 14.86 14.21 13.4 12 13.4C9.79 13.4 8 14.86 8 16.66M12 11C12.618 11 13.2106 10.7545 13.6476 10.3176C14.0845 9.8806 14.33 9.28795 14.33 8.67C14.33 8.05205 14.0845 7.4594 13.6476 7.02244C13.2106 6.58548 12.618 6.34 12 6.34C11.382 6.34 10.7894 6.58548 10.3524 7.02244C9.91548 7.4594 9.67 8.05205 9.67 8.67C9.67 9.28795 9.91548 9.8806 10.3524 10.3176C10.7894 10.7545 11.382 11 12 11Z" stroke="black" stroke-width="1.5" stroke-linecap="round" stroke-linejoin="round"/>
</svg>
