<svg width="24" height="24" viewBox="0 0 24 24" fill="none" xmlns="http://www.w3.org/2000/svg">
<path d="M3.99998 8.00008H2.99998M21 8.00008H20M5.99998 15.0001H7M17 15.0001L18 15.0001M15.51 2.83008H8.48998C5.99998 2.83008 5.44998 4.07008 5.12998 5.59008L3.99998 11.0001H20L18.87 5.59008C18.55 4.07008 18 2.83008 15.51 2.83008ZM21.99 19.8201C22.1 20.9901 21.16 22.0001 19.96 22.0001H18.08C17 22.0001 16.85 21.5401 16.66 20.9701L16.46 20.3701C16.18 19.5501 16 19.0001 14.56 19.0001H9.43998C7.99998 19.0001 7.78998 19.6201 7.53998 20.3701L7.33998 20.9701C7.14998 21.5401 6.99998 22.0001 5.91998 22.0001H4.03998C2.83998 22.0001 1.89998 20.9901 2.00998 19.8201L2.56998 13.7301C2.70998 12.2301 2.99998 11.0001 5.61998 11.0001H18.38C21 11.0001 21.29 12.2301 21.43 13.7301L21.99 19.8201Z" stroke="black" stroke-width="1.5" stroke-linecap="round" stroke-linejoin="round"/>
</svg>
