<svg width="24" height="24" viewBox="0 0 24 24" fill="none" xmlns="http://www.w3.org/2000/svg">
<path d="M17 18.4302H13L8.55 21.3902C8.39982 21.4903 8.22528 21.5478 8.045 21.5564C7.86472 21.5651 7.68546 21.5247 7.52635 21.4395C7.36724 21.3543 7.23424 21.2275 7.14154 21.0727C7.04884 20.9178 6.99992 20.7407 7 20.5602V18.4302C4 18.4302 2 16.4302 2 13.4302V7.43018C2 4.43018 4 2.43018 7 2.43018H17C20 2.43018 22 4.43018 22 7.43018V13.4302C22 16.4302 20 18.4302 17 18.4302Z" stroke="white" stroke-width="1.5" stroke-miterlimit="10" stroke-linecap="round" stroke-linejoin="round"/>
<path d="M11.9998 11.3599V11.1499C11.9998 10.4699 12.4198 10.1099 12.8398 9.81986C13.2498 9.53986 13.6598 9.17986 13.6598 8.51986C13.6598 7.59986 12.9198 6.85986 11.9998 6.85986C11.0798 6.85986 10.3398 7.59986 10.3398 8.51986M11.9948 13.7499H12.0048" stroke="white" stroke-width="1.5" stroke-linecap="round" stroke-linejoin="round"/>
</svg>
