<svg width="24" height="24" viewBox="0 0 24 24" fill="none" xmlns="http://www.w3.org/2000/svg">
<path d="M17 18.4299H13L8.55 21.3899C8.39982 21.49 8.22528 21.5475 8.045 21.5562C7.86472 21.5649 7.68546 21.5245 7.52635 21.4393C7.36724 21.3541 7.23424 21.2273 7.14154 21.0724C7.04884 20.9175 6.99992 20.7404 7 20.5599V18.4299C4 18.4299 2 16.4299 2 13.4299V7.42993C2 4.42993 4 2.42993 7 2.42993H17C20 2.42993 22 4.42993 22 7.42993V13.4299C22 16.4299 20 18.4299 17 18.4299Z" stroke="black" stroke-width="1.5" stroke-miterlimit="10" stroke-linecap="round" stroke-linejoin="round"/>
<path d="M12 11.3601V11.1501C12 10.4701 12.42 10.1101 12.84 9.82011C13.25 9.54011 13.66 9.18011 13.66 8.52011C13.66 7.60011 12.92 6.86011 12 6.86011C11.08 6.86011 10.34 7.60011 10.34 8.52011M11.995 13.7501H12.005" stroke="black" stroke-width="1.5" stroke-linecap="round" stroke-linejoin="round"/>
</svg>
