<svg width="16" height="16" viewBox="0 0 16 16" fill="none" xmlns="http://www.w3.org/2000/svg">
<path d="M11.2134 1.27335H4.78671C3.37338 1.27335 2.21338 2.43335 2.21338 3.84668V13.24C2.21338 14.44 3.07338 14.9467 4.12671 14.3667L7.38005 12.56C7.72671 12.3667 8.28671 12.3667 8.62671 12.56L11.88 14.3667C12.9334 14.9533 13.7934 14.4467 13.7934 13.24V3.84668C13.7867 2.43335 12.6334 1.27335 11.2134 1.27335ZM10.4134 6.02001L7.74671 8.68668C7.64671 8.78668 7.52005 8.83335 7.39338 8.83335C7.26671 8.83335 7.14005 8.78668 7.04005 8.68668L6.04005 7.68668C5.94706 7.59259 5.89491 7.46563 5.89491 7.33335C5.89491 7.20106 5.94706 7.0741 6.04005 6.98001C6.23338 6.78668 6.55338 6.78668 6.74671 6.98001L7.39338 7.62668L9.70671 5.31335C9.90005 5.12001 10.22 5.12001 10.4134 5.31335C10.6067 5.50668 10.6067 5.82668 10.4134 6.02001Z" fill="white"/>
</svg>
