<svg width="24" height="24" viewBox="0 0 24 24" fill="none" xmlns="http://www.w3.org/2000/svg">
<path d="M16.831 15.64C16.9821 15.5405 17.1574 15.4838 17.3381 15.4761C17.5189 15.4683 17.6984 15.5098 17.8574 15.596C18.0165 15.6822 18.1492 15.8099 18.2414 15.9656C18.3336 16.1213 18.3818 16.2991 18.381 16.48V17.77C18.381 19.04 17.391 20.4 16.201 20.8L13.011 21.86C12.451 22.05 11.541 22.05 10.991 21.86L7.80097 20.8C6.60097 20.4 5.62097 19.04 5.62097 17.77V16.47C5.62097 15.68 6.50097 15.2 7.16097 15.63L9.22097 16.97C10.011 17.5 11.011 17.76 12.011 17.76C13.011 17.76 14.011 17.5 14.801 16.97L16.831 15.64Z" fill="black"/>
<path d="M19.98 6.45899L13.99 2.52899C12.91 1.81899 11.13 1.81899 10.05 2.52899L4.03002 6.45899C2.10002 7.70899 2.10002 10.539 4.03002 11.799L5.63002 12.839L10.05 15.719C11.13 16.429 12.91 16.429 13.99 15.719L18.38 12.839L19.75 11.939V14.999C19.75 15.409 20.09 15.749 20.5 15.749C20.91 15.749 21.25 15.409 21.25 14.999V10.079C21.65 8.78899 21.24 7.28899 19.98 6.45899Z" fill="black"/>
</svg>
