<svg width="30" height="24" viewBox="0 0 30 24" fill="none" xmlns="http://www.w3.org/2000/svg">
<path fill-rule="evenodd" clip-rule="evenodd" d="M2.18571 0H17.5375C24.1649 0 29.5375 5.37258 29.5375 12C29.5375 18.6274 24.1649 24 17.5375 24H2.18571C0.402537 24 -0.627618 21.977 0.421193 20.5349L5.6951 13.2833C6.2515 12.5182 6.2515 11.4818 5.6951 10.7167L0.421193 3.4651C-0.627617 2.02299 0.402537 0 2.18571 0ZM17.8486 5.31686C17.7504 5.01589 17.3246 5.01589 17.2264 5.31686L15.71 9.96289C15.6776 10.0622 15.5997 10.1401 15.5004 10.1725L10.8544 11.6889C10.5534 11.7871 10.5534 12.2129 10.8544 12.3111L15.5004 13.8275C15.5997 13.8599 15.6776 13.9378 15.71 14.0371L17.2264 18.6831C17.3246 18.9841 17.7504 18.9841 17.8486 18.6831L19.3651 14.0371C19.3975 13.9378 19.4753 13.8599 19.5746 13.8275L24.2207 12.3111C24.5216 12.2129 24.5216 11.7871 24.2207 11.6889L19.5746 10.1725C19.4753 10.1401 19.3975 10.0622 19.3651 9.96289L17.8486 5.31686Z" fill="white"/>
</svg>
