<svg width="70" height="70" viewBox="0 0 70 70" fill="none" xmlns="http://www.w3.org/2000/svg">
<rect width="70" height="70" rx="14" fill="black"/>
<path d="M48.3586 40.4266L44.1853 30.6666C43.4253 28.8799 42.2919 27.8666 40.9986 27.7999C39.7186 27.7333 38.4786 28.6266 37.5319 30.3333L34.9986 34.8799C34.4653 35.8399 33.7053 36.4133 32.8786 36.4799C32.0386 36.5599 31.1986 36.1199 30.5186 35.2533L30.2253 34.8799C29.2786 33.6933 28.1053 33.1199 26.9053 33.2399C25.7053 33.3599 24.6786 34.1866 23.9986 35.5333L21.6919 40.1333C20.8653 41.7999 20.9453 43.7333 21.9186 45.3066C22.8919 46.8799 24.5853 47.8266 26.4386 47.8266H43.4519C45.2386 47.8266 46.9053 46.9333 47.8919 45.4399C48.9053 43.9466 49.0653 42.0666 48.3586 40.4266ZM28.2933 29.1746C29.4885 29.1746 30.6348 28.6998 31.48 27.8546C32.3251 27.0095 32.7999 25.8632 32.7999 24.6679C32.7999 23.4727 32.3251 22.3264 31.48 21.4812C30.6348 20.6361 29.4885 20.1613 28.2933 20.1613C27.098 20.1613 25.9517 20.6361 25.1066 21.4812C24.2614 22.3264 23.7866 23.4727 23.7866 24.6679C23.7866 25.8632 24.2614 27.0095 25.1066 27.8546C25.9517 28.6998 27.098 29.1746 28.2933 29.1746Z" fill="#474747"/>
</svg>
